<?xml version="1.0" encoding="utf-8"?>
<svg version="1.1" id="Ebene_1" xmlns="http://www.w3.org/2000/svg" xmlns:xlink="http://www.w3.org/1999/xlink" x="0px" y="0px"
	 viewBox="0 0 16 16" style="enable-background:new 0 0 16 16;" xml:space="preserve">
<style type="text/css">
	.st0{fill:#F7DF1E;}
</style>
<rect x="0" class="st0" width="16" height="16"/>
<path d="M10.7,12.5c0.3,0.5,0.7,0.9,1.5,0.9c0.6,0,1-0.3,1-0.7c0-0.5-0.4-0.7-1.1-1l-0.4-0.2c-1.1-0.5-1.8-1-1.8-2.3
	c0-1.1,0.9-2,2.2-2c1,0,1.6,0.3,2.1,1.2l-1.2,0.8c-0.3-0.5-0.5-0.6-1-0.6c-0.4,0-0.7,0.3-0.7,0.6c0,0.5,0.3,0.6,0.9,0.9l0.4,0.2
	c1.3,0.5,2,1.1,2,2.4c0,1.4-1.1,2.1-2.5,2.1c-1.4,0-2.3-0.7-2.7-1.5L10.7,12.5z M5.4,12.6c0.2,0.4,0.5,0.8,1,0.8
	c0.5,0,0.8-0.2,0.8-0.9V7.3h1.5v5.1c0,1.6-0.9,2.3-2.2,2.3c-1.2,0-1.9-0.6-2.3-1.4L5.4,12.6z"/>
</svg>
